<svg width="100" height="32" viewBox="0 0 100 32" fill="none" xmlns="http://www.w3.org/2000/svg">
<rect x="0.671966" y="0.999115" width="98.2853" height="29.7142" rx="4.19046" fill="white" stroke="#18A0FB" stroke-width="0.761901"/>
<path d="M32.9732 19.999V11.9991H34.1161V19.0047H38.4475V19.999H32.9732ZM41.9436 20.0676C41.3341 20.0676 40.7932 19.9343 40.3208 19.6676C39.8484 19.4009 39.4751 19.0352 39.2008 18.5705C38.9265 18.0981 38.7894 17.5647 38.7894 16.9705C38.7894 16.3686 38.9265 15.8352 39.2008 15.3705C39.4751 14.9057 39.8484 14.5438 40.3208 14.2848C40.7932 14.0181 41.3341 13.8848 41.9436 13.8848C42.5455 13.8848 43.0827 14.0181 43.5551 14.2848C44.0351 14.5438 44.4084 14.9057 44.6751 15.3705C44.9493 15.8276 45.0865 16.3609 45.0865 16.9705C45.0865 17.5724 44.9493 18.1057 44.6751 18.5705C44.4084 19.0352 44.0351 19.4009 43.5551 19.6676C43.0827 19.9343 42.5455 20.0676 41.9436 20.0676ZM41.9436 19.1076C42.3322 19.1076 42.6789 19.02 42.9836 18.8447C43.296 18.6695 43.5398 18.4219 43.7151 18.1019C43.8903 17.7743 43.9779 17.3971 43.9779 16.9705C43.9779 16.5362 43.8903 16.1628 43.7151 15.8505C43.5398 15.5305 43.296 15.2829 42.9836 15.1076C42.6789 14.9324 42.3322 14.8448 41.9436 14.8448C41.5551 14.8448 41.2084 14.9324 40.9036 15.1076C40.5989 15.2829 40.3551 15.5305 40.1722 15.8505C39.9894 16.1628 39.8979 16.5362 39.8979 16.9705C39.8979 17.3971 39.9894 17.7743 40.1722 18.1019C40.3551 18.4219 40.5989 18.6695 40.9036 18.8447C41.2084 19.02 41.5551 19.1076 41.9436 19.1076ZM49.0838 22.2847C48.5276 22.2847 47.9866 22.2047 47.4609 22.0447C46.9428 21.8923 46.52 21.6714 46.1924 21.3819L46.7181 20.5362C47 20.78 47.3466 20.9704 47.7581 21.1076C48.1695 21.2524 48.6 21.3247 49.0495 21.3247C49.7657 21.3247 50.2914 21.1571 50.6266 20.8219C50.9619 20.4866 51.1295 19.9762 51.1295 19.2905V18.0105L51.2438 16.8105L51.1866 15.599V13.9419H52.2266V19.1762C52.2266 20.2428 51.96 21.0276 51.4266 21.5304C50.8933 22.0333 50.1124 22.2847 49.0838 22.2847ZM48.9466 19.7476C48.36 19.7476 47.8343 19.6257 47.3695 19.3819C46.9124 19.1305 46.5467 18.7838 46.2724 18.3419C46.0057 17.9 45.8724 17.3895 45.8724 16.8105C45.8724 16.2238 46.0057 15.7133 46.2724 15.279C46.5467 14.8371 46.9124 14.4943 47.3695 14.2505C47.8343 14.0067 48.36 13.8848 48.9466 13.8848C49.4647 13.8848 49.9371 13.9914 50.3638 14.2048C50.7904 14.4105 51.1295 14.7305 51.3809 15.1648C51.64 15.599 51.7695 16.1476 51.7695 16.8105C51.7695 17.4657 51.64 18.0105 51.3809 18.4447C51.1295 18.879 50.7904 19.2066 50.3638 19.4276C49.9371 19.6409 49.4647 19.7476 48.9466 19.7476ZM49.0724 18.7876C49.4762 18.7876 49.8343 18.7038 50.1466 18.5362C50.459 18.3686 50.7028 18.1362 50.8781 17.839C51.0609 17.5419 51.1523 17.199 51.1523 16.8105C51.1523 16.4219 51.0609 16.079 50.8781 15.7819C50.7028 15.4848 50.459 15.2562 50.1466 15.0962C49.8343 14.9286 49.4762 14.8448 49.0724 14.8448C48.6685 14.8448 48.3066 14.9286 47.9866 15.0962C47.6743 15.2562 47.4266 15.4848 47.2438 15.7819C47.0686 16.079 46.9809 16.4219 46.9809 16.8105C46.9809 17.199 47.0686 17.5419 47.2438 17.839C47.4266 18.1362 47.6743 18.3686 47.9866 18.5362C48.3066 18.7038 48.6685 18.7876 49.0724 18.7876ZM57.0493 19.999V13.9419H58.1464V19.999H57.0493ZM57.5979 12.7762C57.3845 12.7762 57.2055 12.7076 57.0607 12.5705C56.9236 12.4333 56.855 12.2657 56.855 12.0676C56.855 11.8619 56.9236 11.6905 57.0607 11.5533C57.2055 11.4162 57.3845 11.3476 57.5979 11.3476C57.8112 11.3476 57.9864 11.4162 58.1236 11.5533C58.2683 11.6829 58.3407 11.8467 58.3407 12.0448C58.3407 12.2505 58.2721 12.4257 58.135 12.5705C57.9979 12.7076 57.8188 12.7762 57.5979 12.7762ZM63.3041 13.8848C63.7993 13.8848 64.2336 13.98 64.6069 14.1705C64.9879 14.361 65.285 14.6505 65.4984 15.039C65.7117 15.4276 65.8184 15.919 65.8184 16.5133V19.999H64.7212V16.639C64.7212 16.0524 64.5765 15.6105 64.2869 15.3133C64.005 15.0162 63.605 14.8676 63.0869 14.8676C62.6984 14.8676 62.3593 14.9438 62.0698 15.0962C61.7803 15.2486 61.5555 15.4733 61.3955 15.7705C61.2431 16.0676 61.1669 16.4371 61.1669 16.879V19.999H60.0698V13.9419H61.1212V15.5762L60.9498 15.1419C61.1479 14.7457 61.4527 14.4371 61.8641 14.2162C62.2755 13.9952 62.7555 13.8848 63.3041 13.8848Z" fill="#18A0FB"/>
</svg>
